<?xml version="1.0" encoding="utf-8"?>
<!-- Generator: Adobe Illustrator 24.1.3, SVG Export Plug-In . SVG Version: 6.00 Build 0)  -->
<svg version="1.1" id="Layer_1" xmlns="http://www.w3.org/2000/svg" xmlns:xlink="http://www.w3.org/1999/xlink" x="0px" y="0px"
	 viewBox="0 0 2834.65 2834.65" style="enable-background:new 0 0 2834.65 2834.65;" xml:space="preserve">
<style type="text/css">
	.st0{fill:none;stroke:#000000;stroke-miterlimit:10;}
</style>
<path class="st0" d="M1499.25,1032.26l22.64-18.39c6.51-5.29,16.31-2.11,18.47,6l7.5,28.18c1.41,5.29,6.33,8.87,11.8,8.57
	l29.12-1.57c8.38-0.45,14.43,7.88,11.41,15.71l-10.49,27.21c-1.97,5.11-0.09,10.9,4.51,13.87l24.48,15.84
	c7.04,4.56,7.04,14.86,0,19.42l-24.48,15.84c-4.6,2.97-6.48,8.76-4.51,13.87l10.49,27.21c3.02,7.83-3.04,16.16-11.41,15.71
	l-29.12-1.57c-5.47-0.3-10.39,3.28-11.8,8.57l-7.5,28.18c-2.16,8.11-11.96,11.29-18.47,6l-22.64-18.39
	c-4.25-3.45-10.34-3.45-14.58,0l-22.63,18.39c-6.51,5.29-16.31,2.11-18.47-6l-7.5-28.18c-1.41-5.29-6.33-8.87-11.8-8.57l-29.12,1.57
	c-8.38,0.45-14.43-7.88-11.41-15.71l10.49-27.21c1.97-5.11,0.09-10.9-4.51-13.87l-24.48-15.84c-7.04-4.56-7.04-14.86,0-19.42
	l24.48-15.84c4.6-2.97,6.48-8.76,4.51-13.87l-10.49-27.21c-3.02-7.83,3.04-16.16,11.41-15.71l29.12,1.57
	c5.47,0.3,10.39-3.28,11.8-8.57l7.5-28.18c2.16-8.11,11.96-11.29,18.47-6l22.63,18.39
	C1488.92,1035.71,1495.01,1035.71,1499.25,1032.26z"/>
</svg>
